<svg width="110" height="58" viewBox="0 0 110 58" fill="none" xmlns="http://www.w3.org/2000/svg">
<g clip-path="url(#clip0_24_119)">
<path d="M80.4454 9.29864C80.1115 8.54827 79.7445 7.81773 79.3412 7.10373C76.518 10.2341 70.498 17.3742 66.7194 25.192C62.5011 33.9187 60.1407 43.419 59.0894 48.46C64.4383 45.3858 73.8502 40.4208 86.5084 35.4691C85.8637 25.7308 83.8273 16.9313 80.4454 9.29864Z" fill="#EFAF70"/>
<path d="M104.208 42.781L103.821 39.6936C102.201 39.0292 91.5499 40.4539 87.1134 41.3497C87.1134 41.3497 96.2012 37.7499 103.461 36.8243L103.005 33.1783C87.8836 37.8954 75.8403 43.3463 67.7111 47.5279C76.1345 44.7974 84.2868 43.5909 90.5349 43.0818C96.2376 42.6158 101.008 42.6488 104.205 42.781H104.208Z" fill="#EFAF70"/>
<path d="M75.2386 34.0047C78.0795 34.0047 80.3826 31.7018 80.3826 28.8612C80.3826 26.0205 78.0795 23.7177 75.2386 23.7177C72.3977 23.7177 70.0947 26.0205 70.0947 28.8612C70.0947 31.7018 72.3977 34.0047 75.2386 34.0047Z" fill="#7A4311"/>
<path d="M29.5546 9.29864C29.8885 8.54827 30.2554 7.81773 30.6588 7.10373C33.482 10.2341 39.502 17.3742 43.2806 25.192C47.4989 33.9187 49.8593 43.419 50.9106 48.46C45.5617 45.3858 36.1498 40.4208 23.4916 35.4691C24.1363 25.7308 26.1727 16.9313 29.5546 9.29864Z" fill="#EFAF70"/>
<path d="M5.7919 42.781L6.17869 39.6936C7.79857 39.0292 18.4501 40.4539 22.8866 41.3497C22.8866 41.3497 13.7988 37.7499 6.53903 36.8243L6.99524 33.1783C22.1164 37.8954 34.1597 43.3463 42.2889 47.5279C33.8655 44.7974 25.7132 43.5909 19.465 43.0818C13.7624 42.6158 8.992 42.6488 5.79521 42.781H5.7919Z" fill="#EFAF70"/>
<path d="M34.7614 34.0047C37.6023 34.0047 39.9053 31.7018 39.9053 28.8612C39.9053 26.0205 37.6023 23.7177 34.7614 23.7177C31.9204 23.7177 29.6174 26.0205 29.6174 28.8612C29.6174 31.7018 31.9204 34.0047 34.7614 34.0047Z" fill="#7A4311"/>
<path d="M108.532 43.0752C108.473 43.0686 108.135 43.0323 107.564 42.9827L106.215 32.2031C106.228 32.1866 106.235 32.1767 106.248 32.1602C107.312 32.0511 107.964 31.023 107.679 30.0479C107.421 29.1719 106.502 28.6694 105.626 28.9306C99.9204 30.6098 94.6111 32.4114 89.7349 34.2361C88.9911 24.511 86.8886 15.6818 83.467 7.95988C82.4322 5.62282 81.0834 3.43121 79.4569 1.44455L78.2734 0L76.9808 1.34868C73.989 4.47247 70.3955 8.41605 67.1491 12.8422L62.9209 10.7465C60.4514 9.52012 57.7406 8.90858 55.0298 8.90197C52.3057 8.89867 49.5486 9.51681 47.0659 10.7465L42.8377 12.8422C39.5913 8.41274 35.9978 4.46917 33.006 1.34868L31.7134 0L30.5298 1.44455C28.9034 3.43121 27.5546 5.62282 26.5198 7.95988C23.0982 15.6818 20.9957 24.511 20.2519 34.2361C15.3757 32.4114 10.0631 30.6131 4.36046 28.9306C3.372 28.6364 2.32735 29.3173 2.24139 30.4082C2.18189 31.1916 2.73066 31.8957 3.48441 32.1172C3.57366 32.1436 3.66623 32.1701 3.75549 32.1998C3.76541 32.1998 3.76871 32.2097 3.76871 32.2197L2.41991 42.9827C1.84799 43.0323 1.5141 43.0686 1.45129 43.0752C0.545474 43.1777 -0.105786 43.9975 -0.00330312 44.9032C0.0991793 45.809 0.919039 46.4602 1.82485 46.361C2.09593 46.3312 27.7066 43.6041 50.1007 54.1556C50.6528 56.3505 52.6264 57.9769 54.9835 58C57.3439 57.9769 59.3142 56.3505 59.8663 54.1556C82.2603 43.6041 107.871 46.3279 108.142 46.361C109.048 46.4602 109.868 45.8123 109.97 44.9032C110.073 43.9975 109.421 43.1777 108.516 43.0752H108.532ZM48.5403 13.7083C50.5635 12.7067 52.7818 12.2043 55 12.2043C57.2183 12.2043 59.4365 12.7067 61.4597 13.7083L65.2383 15.5826C62.8978 19.0997 60.8679 22.8582 59.572 26.7092C57.6943 32.1568 56.1637 37.7697 55.0033 43.419H55C53.8396 37.7697 52.3057 32.1568 50.4313 26.7092C49.1354 22.8582 47.1056 19.0997 44.765 15.5826L48.5436 13.7083H48.5403ZM19.4617 43.0818C13.7591 42.6158 8.9887 42.6488 5.79191 42.781L6.1787 39.6936C7.79858 39.0292 18.4501 40.4539 22.8866 41.3497C22.8866 41.3497 13.7988 37.7499 6.53904 36.8243L6.99525 33.1783C22.1164 37.8954 34.1597 43.3463 42.2856 47.5279C33.8622 44.7974 25.7099 43.5909 19.4617 43.0818ZM51.8098 48.9757C46.656 45.9643 36.8937 40.7051 23.4916 35.4657C24.1363 25.7275 26.1727 16.928 29.5546 9.29534C30.2158 7.80451 31.0224 6.3765 31.9613 5.03773C37.4623 10.9052 44.408 19.1758 47.2973 27.7703C49.2742 33.5121 50.8643 39.4325 52.0214 45.3759L52.6165 48.427C52.3288 48.5824 52.0578 48.7675 51.8065 48.9757H51.8098ZM58.1902 48.9757C57.9389 48.7675 57.6679 48.5857 57.3802 48.427L57.9753 45.3759C59.1357 39.4292 60.7225 33.5121 62.6994 27.7703C65.5888 19.1758 72.5344 10.9052 78.0354 5.03773C78.9743 6.3765 79.7809 7.80121 80.4421 9.29534C83.824 16.928 85.8604 25.7275 86.5051 35.4657C73.1063 40.7051 63.3407 45.9643 58.1869 48.9757H58.1902ZM90.5383 43.0818C84.2901 43.5909 76.1378 44.7974 67.7144 47.5279C75.8403 43.3463 87.8869 37.8954 103.005 33.1783L103.461 36.8243C96.2012 37.7499 87.1134 41.3497 87.1134 41.3497C91.5499 40.4506 102.198 39.0292 103.821 39.6936L104.208 42.781C101.011 42.6488 96.2376 42.6158 90.5383 43.0818Z" fill="#7A4311"/>
<path d="M50.428 26.7092C52.3057 32.1568 53.8363 37.7697 54.9967 43.419H55C56.1604 37.7697 57.6943 32.1568 59.5687 26.7092C60.6266 23.5623 62.1804 20.4782 63.9887 17.5362C58.3588 14.7727 51.7338 14.9049 46.2163 17.8833C47.9353 20.7195 49.4065 23.6846 50.4247 26.7092H50.428Z" fill="#EFAF70"/>
</g>
<defs>
<clipPath id="clip0_24_119">
<rect width="110" height="58" fill="white"/>
</clipPath>
</defs>
</svg>
